<mxfile host="app.diagrams.net" modified="2023-04-08T08:56:21.022Z" agent="Mozilla/5.0 (Windows NT 10.0; Win64; x64) AppleWebKit/537.36 (KHTML, like Gecko) Chrome/111.0.0.0 Safari/537.36" etag="BM8YVpsMo3SVCOf6KAPd" version="21.1.5" type="github">
  <diagram id="6a731a19-8d31-9384-78a2-239565b7b9f0" name="Page-1">
    <mxGraphModel dx="215" dy="441" grid="0" gridSize="10" guides="1" tooltips="1" connect="1" arrows="1" fold="1" page="1" pageScale="1" pageWidth="827" pageHeight="1169" background="none" math="1" shadow="0">
      <root>
        <mxCell id="0" />
        <mxCell id="1" parent="0" />
        <mxCell id="SetZwWwfPwSOOWWnOmEX-2257" value="&lt;font style=&quot;font-size: 10px;&quot;&gt;$$x^1 = (\frac{29}{14}, \frac{38}{14})$$ $$ z^1 = \frac{67}{14} \approx 4.79 $$&lt;/font&gt;" style="rounded=0;whiteSpace=wrap;html=1;" vertex="1" parent="1">
          <mxGeometry x="1164" y="520" width="140" height="80" as="geometry" />
        </mxCell>
        <mxCell id="SetZwWwfPwSOOWWnOmEX-2259" value="&lt;font style=&quot;font-size: 10px;&quot;&gt;$$x^2 = (2, \frac{5}{2})$$ $$ z^2 = 4.5 $$&lt;/font&gt;" style="rounded=0;whiteSpace=wrap;html=1;" vertex="1" parent="1">
          <mxGeometry x="1084" y="640" width="140" height="80" as="geometry" />
        </mxCell>
        <mxCell id="SetZwWwfPwSOOWWnOmEX-2260" value="" style="endArrow=classic;html=1;rounded=0;exitX=0.25;exitY=1;exitDx=0;exitDy=0;entryX=0.5;entryY=0;entryDx=0;entryDy=0;" edge="1" parent="1" source="SetZwWwfPwSOOWWnOmEX-2257" target="SetZwWwfPwSOOWWnOmEX-2259">
          <mxGeometry width="50" height="50" relative="1" as="geometry">
            <mxPoint x="1204" y="660" as="sourcePoint" />
            <mxPoint x="1254" y="610" as="targetPoint" />
          </mxGeometry>
        </mxCell>
        <mxCell id="SetZwWwfPwSOOWWnOmEX-2261" value="$$x_1 \leq 2$$" style="edgeLabel;html=1;align=center;verticalAlign=middle;resizable=0;points=[];fillColor=#BF87FF;strokeColor=#70FFE2;" vertex="1" connectable="0" parent="SetZwWwfPwSOOWWnOmEX-2260">
          <mxGeometry x="0.369" y="-2" relative="1" as="geometry">
            <mxPoint x="-29" y="-11" as="offset" />
          </mxGeometry>
        </mxCell>
        <mxCell id="SetZwWwfPwSOOWWnOmEX-2262" value="&lt;font style=&quot;font-size: 10px;&quot;&gt;INF&lt;/font&gt;" style="rounded=0;whiteSpace=wrap;html=1;" vertex="1" parent="1">
          <mxGeometry x="1274" y="640" width="80" height="60" as="geometry" />
        </mxCell>
        <mxCell id="SetZwWwfPwSOOWWnOmEX-2263" value="" style="endArrow=classic;html=1;rounded=0;exitX=0.714;exitY=1;exitDx=0;exitDy=0;entryX=0.5;entryY=0;entryDx=0;entryDy=0;exitPerimeter=0;" edge="1" parent="1" target="SetZwWwfPwSOOWWnOmEX-2262" source="SetZwWwfPwSOOWWnOmEX-2257">
          <mxGeometry width="50" height="50" relative="1" as="geometry">
            <mxPoint x="1389" y="600" as="sourcePoint" />
            <mxPoint x="1444" y="610" as="targetPoint" />
          </mxGeometry>
        </mxCell>
        <mxCell id="SetZwWwfPwSOOWWnOmEX-2264" value="$$x_1 \geq 3$$" style="edgeLabel;html=1;align=center;verticalAlign=middle;resizable=0;points=[];fillColor=#4D94FF;strokeColor=#000000;shadow=1;" vertex="1" connectable="0" parent="SetZwWwfPwSOOWWnOmEX-2263">
          <mxGeometry x="0.369" y="-2" relative="1" as="geometry">
            <mxPoint x="31" y="-15" as="offset" />
          </mxGeometry>
        </mxCell>
        <mxCell id="SetZwWwfPwSOOWWnOmEX-2265" value="&lt;font style=&quot;font-size: 10px;&quot;&gt;$$x^3 = (\frac{11}{6}, 2)$$ $$ z^3 \approx 3.83 $$&lt;/font&gt;" style="rounded=0;whiteSpace=wrap;html=1;" vertex="1" parent="1">
          <mxGeometry x="954" y="760" width="140" height="80" as="geometry" />
        </mxCell>
        <mxCell id="SetZwWwfPwSOOWWnOmEX-2266" value="" style="endArrow=classic;html=1;rounded=0;exitX=0.25;exitY=1;exitDx=0;exitDy=0;entryX=0.5;entryY=0;entryDx=0;entryDy=0;" edge="1" parent="1" target="SetZwWwfPwSOOWWnOmEX-2265" source="SetZwWwfPwSOOWWnOmEX-2259">
          <mxGeometry width="50" height="50" relative="1" as="geometry">
            <mxPoint x="1049" y="730" as="sourcePoint" />
            <mxPoint x="1104" y="740" as="targetPoint" />
          </mxGeometry>
        </mxCell>
        <mxCell id="SetZwWwfPwSOOWWnOmEX-2267" value="$$x_2 \leq 2$$" style="edgeLabel;html=1;align=center;verticalAlign=middle;resizable=0;points=[];fillColor=#BF87FF;strokeColor=#70FFE2;" vertex="1" connectable="0" parent="SetZwWwfPwSOOWWnOmEX-2266">
          <mxGeometry x="0.369" y="-2" relative="1" as="geometry">
            <mxPoint x="-26" y="-15" as="offset" />
          </mxGeometry>
        </mxCell>
        <mxCell id="SetZwWwfPwSOOWWnOmEX-2268" value="&lt;font style=&quot;font-size: 10px;&quot;&gt;$$x^4 = (\frac{3}{2}, 3)$$ $$ z^4 =4.5 $$&lt;/font&gt;" style="rounded=0;whiteSpace=wrap;html=1;" vertex="1" parent="1">
          <mxGeometry x="1224" y="760" width="140" height="80" as="geometry" />
        </mxCell>
        <mxCell id="SetZwWwfPwSOOWWnOmEX-2269" value="" style="endArrow=classic;html=1;rounded=0;exitX=0.75;exitY=1;exitDx=0;exitDy=0;entryX=0.5;entryY=0;entryDx=0;entryDy=0;" edge="1" parent="1" target="SetZwWwfPwSOOWWnOmEX-2268" source="SetZwWwfPwSOOWWnOmEX-2259">
          <mxGeometry width="50" height="50" relative="1" as="geometry">
            <mxPoint x="1209" y="730" as="sourcePoint" />
            <mxPoint x="1264" y="740" as="targetPoint" />
          </mxGeometry>
        </mxCell>
        <mxCell id="SetZwWwfPwSOOWWnOmEX-2270" value="$$x_2 \geq 3$$" style="edgeLabel;html=1;align=center;verticalAlign=middle;resizable=0;points=[];fillColor=#BF87FF;strokeColor=#70FFE2;" vertex="1" connectable="0" parent="SetZwWwfPwSOOWWnOmEX-2269">
          <mxGeometry x="0.369" y="-2" relative="1" as="geometry">
            <mxPoint x="34" y="-16" as="offset" />
          </mxGeometry>
        </mxCell>
        <mxCell id="SetZwWwfPwSOOWWnOmEX-2271" value="&lt;font style=&quot;font-size: 10px;&quot;&gt;$$x^5 = (1,2)$$ $$ z^5 = 3 $$&lt;/font&gt;" style="rounded=0;whiteSpace=wrap;html=1;" vertex="1" parent="1">
          <mxGeometry x="864" y="880" width="140" height="80" as="geometry" />
        </mxCell>
        <mxCell id="SetZwWwfPwSOOWWnOmEX-2272" value="" style="endArrow=classic;html=1;rounded=0;exitX=0.25;exitY=1;exitDx=0;exitDy=0;entryX=0.5;entryY=0;entryDx=0;entryDy=0;" edge="1" parent="1" target="SetZwWwfPwSOOWWnOmEX-2271">
          <mxGeometry width="50" height="50" relative="1" as="geometry">
            <mxPoint x="1006" y="840" as="sourcePoint" />
            <mxPoint x="1061" y="850" as="targetPoint" />
          </mxGeometry>
        </mxCell>
        <mxCell id="SetZwWwfPwSOOWWnOmEX-2273" value="$$x_1 \leq 1$$" style="edgeLabel;html=1;align=center;verticalAlign=middle;resizable=0;points=[];fillColor=#BF87FF;strokeColor=#70FFE2;" vertex="1" connectable="0" parent="SetZwWwfPwSOOWWnOmEX-2272">
          <mxGeometry x="0.369" y="-2" relative="1" as="geometry">
            <mxPoint x="-30" y="-12" as="offset" />
          </mxGeometry>
        </mxCell>
        <mxCell id="SetZwWwfPwSOOWWnOmEX-2274" value="&lt;font style=&quot;font-size: 10px;&quot;&gt;INF&lt;/font&gt;" style="rounded=0;whiteSpace=wrap;html=1;" vertex="1" parent="1">
          <mxGeometry x="1054" y="880" width="80" height="60" as="geometry" />
        </mxCell>
        <mxCell id="SetZwWwfPwSOOWWnOmEX-2275" value="" style="endArrow=classic;html=1;rounded=0;exitX=0.714;exitY=1;exitDx=0;exitDy=0;entryX=0.5;entryY=0;entryDx=0;entryDy=0;exitPerimeter=0;" edge="1" parent="1" target="SetZwWwfPwSOOWWnOmEX-2274">
          <mxGeometry width="50" height="50" relative="1" as="geometry">
            <mxPoint x="1071" y="840" as="sourcePoint" />
            <mxPoint x="1251" y="850" as="targetPoint" />
          </mxGeometry>
        </mxCell>
        <mxCell id="SetZwWwfPwSOOWWnOmEX-2276" value="$$x_1 \geq 2$$" style="edgeLabel;html=1;align=center;verticalAlign=middle;resizable=0;points=[];fillColor=#4D94FF;strokeColor=#000000;shadow=1;" vertex="1" connectable="0" parent="SetZwWwfPwSOOWWnOmEX-2275">
          <mxGeometry x="0.369" y="-2" relative="1" as="geometry">
            <mxPoint x="30" y="-11" as="offset" />
          </mxGeometry>
        </mxCell>
        <mxCell id="SetZwWwfPwSOOWWnOmEX-2277" value="&lt;font style=&quot;font-size: 10px;&quot;&gt;$$x^6 = (1,\frac{13}{4})$$ $$ z^6 = 4.25$$&lt;/font&gt;" style="rounded=0;whiteSpace=wrap;html=1;" vertex="1" parent="1">
          <mxGeometry x="1164" y="880" width="140" height="80" as="geometry" />
        </mxCell>
        <mxCell id="SetZwWwfPwSOOWWnOmEX-2278" value="" style="endArrow=classic;html=1;rounded=0;exitX=0.25;exitY=1;exitDx=0;exitDy=0;entryX=0.5;entryY=0;entryDx=0;entryDy=0;" edge="1" parent="1" target="SetZwWwfPwSOOWWnOmEX-2277" source="SetZwWwfPwSOOWWnOmEX-2268">
          <mxGeometry width="50" height="50" relative="1" as="geometry">
            <mxPoint x="1306" y="840" as="sourcePoint" />
            <mxPoint x="1361" y="850" as="targetPoint" />
          </mxGeometry>
        </mxCell>
        <mxCell id="SetZwWwfPwSOOWWnOmEX-2279" value="$$x_1 \leq 1$$" style="edgeLabel;html=1;align=center;verticalAlign=middle;resizable=0;points=[];fillColor=#BF87FF;strokeColor=#70FFE2;" vertex="1" connectable="0" parent="SetZwWwfPwSOOWWnOmEX-2278">
          <mxGeometry x="0.369" y="-2" relative="1" as="geometry">
            <mxPoint x="-30" y="-8" as="offset" />
          </mxGeometry>
        </mxCell>
        <mxCell id="SetZwWwfPwSOOWWnOmEX-2280" value="&lt;font style=&quot;font-size: 10px;&quot;&gt;INF&lt;/font&gt;" style="rounded=0;whiteSpace=wrap;html=1;" vertex="1" parent="1">
          <mxGeometry x="1354" y="880" width="80" height="60" as="geometry" />
        </mxCell>
        <mxCell id="SetZwWwfPwSOOWWnOmEX-2281" value="" style="endArrow=classic;html=1;rounded=0;exitX=0.75;exitY=1;exitDx=0;exitDy=0;entryX=0.5;entryY=0;entryDx=0;entryDy=0;" edge="1" parent="1" target="SetZwWwfPwSOOWWnOmEX-2280" source="SetZwWwfPwSOOWWnOmEX-2268">
          <mxGeometry width="50" height="50" relative="1" as="geometry">
            <mxPoint x="1371" y="840" as="sourcePoint" />
            <mxPoint x="1551" y="850" as="targetPoint" />
          </mxGeometry>
        </mxCell>
        <mxCell id="SetZwWwfPwSOOWWnOmEX-2282" value="$$x_1 \geq 2$$" style="edgeLabel;html=1;align=center;verticalAlign=middle;resizable=0;points=[];fillColor=#4D94FF;strokeColor=#000000;shadow=1;" vertex="1" connectable="0" parent="SetZwWwfPwSOOWWnOmEX-2281">
          <mxGeometry x="0.369" y="-2" relative="1" as="geometry">
            <mxPoint x="30" y="-16" as="offset" />
          </mxGeometry>
        </mxCell>
        <mxCell id="SetZwWwfPwSOOWWnOmEX-2283" value="&lt;font style=&quot;font-size: 10px;&quot;&gt;$$x^7 = (1,3)$$ $$ z^7 = 4$$&lt;/font&gt;" style="rounded=0;whiteSpace=wrap;html=1;" vertex="1" parent="1">
          <mxGeometry x="1103" y="1000" width="140" height="80" as="geometry" />
        </mxCell>
        <mxCell id="SetZwWwfPwSOOWWnOmEX-2284" value="" style="endArrow=classic;html=1;rounded=0;exitX=0.25;exitY=1;exitDx=0;exitDy=0;entryX=0.5;entryY=0;entryDx=0;entryDy=0;" edge="1" parent="1" target="SetZwWwfPwSOOWWnOmEX-2283">
          <mxGeometry width="50" height="50" relative="1" as="geometry">
            <mxPoint x="1198" y="960" as="sourcePoint" />
            <mxPoint x="1300" y="970" as="targetPoint" />
          </mxGeometry>
        </mxCell>
        <mxCell id="SetZwWwfPwSOOWWnOmEX-2285" value="$$x_2 \leq 3$$" style="edgeLabel;html=1;align=center;verticalAlign=middle;resizable=0;points=[];fillColor=#BF87FF;strokeColor=#70FFE2;" vertex="1" connectable="0" parent="SetZwWwfPwSOOWWnOmEX-2284">
          <mxGeometry x="0.369" y="-2" relative="1" as="geometry">
            <mxPoint x="-30" y="-8" as="offset" />
          </mxGeometry>
        </mxCell>
        <mxCell id="SetZwWwfPwSOOWWnOmEX-2286" value="&lt;font style=&quot;font-size: 10px;&quot;&gt;INF&lt;/font&gt;" style="rounded=0;whiteSpace=wrap;html=1;" vertex="1" parent="1">
          <mxGeometry x="1293" y="1000" width="80" height="60" as="geometry" />
        </mxCell>
        <mxCell id="SetZwWwfPwSOOWWnOmEX-2287" value="" style="endArrow=classic;html=1;rounded=0;exitX=0.75;exitY=1;exitDx=0;exitDy=0;entryX=0.5;entryY=0;entryDx=0;entryDy=0;" edge="1" parent="1" target="SetZwWwfPwSOOWWnOmEX-2286">
          <mxGeometry width="50" height="50" relative="1" as="geometry">
            <mxPoint x="1268" y="960" as="sourcePoint" />
            <mxPoint x="1490" y="970" as="targetPoint" />
          </mxGeometry>
        </mxCell>
        <mxCell id="SetZwWwfPwSOOWWnOmEX-2288" value="$$x_2 \geq 4$$" style="edgeLabel;html=1;align=center;verticalAlign=middle;resizable=0;points=[];fillColor=#4D94FF;strokeColor=#000000;shadow=1;" vertex="1" connectable="0" parent="SetZwWwfPwSOOWWnOmEX-2287">
          <mxGeometry x="0.369" y="-2" relative="1" as="geometry">
            <mxPoint x="30" y="-16" as="offset" />
          </mxGeometry>
        </mxCell>
      </root>
    </mxGraphModel>
  </diagram>
</mxfile>
